<svg version="1.0" xmlns="http://www.w3.org/2000/svg" xmlns:xlink="http://www.w3.org/1999/xlink"
     width="100%" height="100%" viewBox="0 0 340.000000 250.000000" preserveAspectRatio="xMidYMid meet"
     color-interpolation-filters="sRGB" style="margin: auto;">
  <rect data-v-0dd9719b="" x="0" y="0" width="100%" height="100%" fill="#feffff" fill-opacity="0"
        class="background"></rect>
  <g data-v-0dd9719b="" fill="#333" class="iconlinesvg-g iconlinesvg"
     transform="translate(90.84327161312103,96.40545463562012)">
    <g class="tp-name" transform="matrix(1,0,0,1,0,0)" opacity="1">
      <g transform="translate(0, 0)">
        <g data-gra="path-name" fill="#333" transform="scale(1)">
          <path
            d="M19.55-26.99L13.81-9.67L25.24-9.67L19.55-26.99ZM38.47 0L28.37 0L26.25-6.53L12.80-6.53L10.63 0L0.74 0L13.28-33.05L25.87-33.05L38.47 0Z"
            transform="translate(-0.7438016528925621, 35.543093270366)"></path>
        </g>
      </g>
      <g transform="translate(41, 0)">
        <g data-gra="path-name" fill="#333" transform="scale(1)">
          <path
            d="M22.37-4.78L22.37-4.78L22.37-20.93Q22.37-22.00 22.07-22.29Q21.78-22.58 20.72-22.58L20.72-22.58L15.30-22.58Q13.39-22.58 13.39-20.93L13.39-20.93L13.39-4.78Q13.39-3.13 15.30-3.13L15.30-3.13L20.72-3.13Q21.78-3.13 22.07-3.43Q22.37-3.72 22.37-4.78ZM16.36-25.71L16.36-25.71L27.95-25.71Q32.14-25.71 32.14-21.52L32.14-21.52L32.14-4.20Q32.14 0 27.95 0L27.95 0L16.36 0Q14.03 0 13.39-1.49L13.39-1.49L13.39 7.49L3.61 7.49L3.61-25.71L13.18-25.71L13.18-23.64Q13.71-25.71 16.36-25.71Z"
            transform="translate(-3.6127508854781585, 35.543093270366)"></path>
        </g>
      </g>
      <g transform="translate(73, 0)">
        <g data-gra="path-name" fill="#333" transform="scale(1)">
          <path
            d="M13.55-25.77L13.55 0L3.77 0L3.77-25.77L13.55-25.77ZM13.76-29.65L3.61-29.65L3.61-35.54L13.76-35.54L13.76-29.65Z"
            transform="translate(-3.612750885478158, 35.543093270366)"></path>
        </g>
      </g>
      <g transform="translate(87, 0)">
        <g data-gra="path-name" fill="#333" transform="scale(1)">
          <path d="M13.71-35.54L13.71 0L3.98 0L3.98-35.54L13.71-35.54Z"
                transform="translate(-3.9846517119244393, 35.543093270366)"></path>
        </g>
      </g>
      <g transform="translate(100, 5.9237235066294325)">
        <g>
          <g class="imagesvg">
            <g>
              <rect fill="#333" fill-opacity="0" stroke-width="2" x="0" y="0" width="26.63944541047877"
                    height="31.186791475525084" class="image-rect"></rect>
              <svg filter="url(#colors9356562532)" x="0" y="0" width="26.63944541047877" height="31.186791475525084"
                   filtersec="colorsf1857819930" class="image-svg-svg primary" style="overflow: visible;">
                <svg xmlns="http://www.w3.org/2000/svg"
                     viewBox="0.6138558387756348 0.3410000801086426 83.28719329833984 97.50399780273438">
                  <path fill="#333333"
                        d="M82.685 76.951L54.83 7.841l-.27-.4c-2.545-4.423-7.1-7.1-12.323-7.1s-9.77 2.684-12.316 7.1l-.131.269L1.928 76.95C-.218 81.906.32 87.53 3.135 91.821c2.546 3.885 6.693 6.024 11.247 6.024h55.98c4.554 0 8.57-2.008 11.116-5.762 2.684-4.147 3.215-9.908 1.207-15.132zM14.651 63.29l21.294-52.633c1.338-2.277 3.746-3.615 6.43-3.615s4.955 1.338 6.431 3.615l11.116 27.586C49.476 52.305 33.136 61.951 14.652 63.29z"></path>
                </svg>
              </svg>
              <defs>
                <filter id="colors9356562532">
                  <feColorMatrix type="matrix"
                                 values="0 0 0 0 0.19921875  0 0 0 0 0.19921875  0 0 0 0 0.19921875  0 0 0 1 0"
                                 class="icon-fecolormatrix"></feColorMatrix>
                </filter>
                <filter id="colorsf1857819930">
                  <feColorMatrix type="matrix"
                                 values="0 0 0 0 0.99609375  0 0 0 0 0.99609375  0 0 0 0 0.99609375  0 0 0 1 0"
                                 class="icon-fecolormatrix"></feColorMatrix>
                </filter>
                <filter id="colorsb3380790457">
                  <feColorMatrix type="matrix" values="0 0 0 0 0  0 0 0 0 0  0 0 0 0 0  0 0 0 1 0"
                                 class="icon-fecolormatrix"></feColorMatrix>
                </filter>
              </defs>
            </g>
          </g>
        </g>
      </g>
      <g transform="translate(130, 0)">
        <g data-gra="path-name" fill="#333" transform="scale(1)">
          <path
            d="M22.15-4.78L22.15-4.78L22.15-20.99Q22.15-22.00 21.86-22.31Q21.57-22.63 20.51-22.63L20.51-22.63L15.30-22.63Q13.39-22.63 13.39-20.99L13.39-20.99L13.39-4.78Q13.39-3.13 15.30-3.13L15.30-3.13L20.51-3.13Q21.57-3.13 21.86-3.43Q22.15-3.72 22.15-4.78ZM16.42-25.77L16.42-25.77L27.73-25.77Q31.93-25.77 31.93-21.57L31.93-21.57L31.93-4.20Q31.93 0 27.73 0L27.73 0L16.42 0Q14.13 0 13.39-1.54L13.39-1.54L13.39 0L3.61 0L3.61-35.54L13.39-35.54L13.39-24.23Q14.13-25.77 16.42-25.77Z"
            transform="translate(-3.612750885478158, 35.543093270366)"></path>
        </g>
      </g>
    </g>
    <g data-gra="path-slogan" fill-rule="" class="tp-slogan" fill="#333"
       transform="matrix(1,0,0,1,5,49.029998779296875)" opacity="1">
      <rect x="0" height="1" y="3.580000400543213" width="14.190532684326172"></rect>
      <rect height="1" y="3.580000400543213" width="14.190532684326172" x="134.1305274963379"></rect>
      <g transform="translate(17.190532684326172,0)">
        <g transform="scale(1)">
          <path
            d="M1.08-7.87L1.08 0L5.52 0L5.52-0.85L2.08-0.85L2.08-7.87ZM10.30-3.20L7.93-3.20L8.30-4.40C8.45-4.84 8.58-5.28 8.71-5.72C8.84-6.15 8.96-6.60 9.08-7.06L9.13-7.06C9.26-6.60 9.39-6.15 9.52-5.72C9.64-5.28 9.78-4.84 9.92-4.40ZM10.55-2.40L11.29 0L12.36 0L9.70-7.87L8.57-7.87L5.90 0L6.92 0L7.68-2.40ZM13.48-7.87L13.48 0L15.98 0C16.42 0 16.83-0.05 17.20-0.14C17.56-0.24 17.88-0.38 18.14-0.58C18.41-0.77 18.61-1.01 18.76-1.30C18.90-1.58 18.97-1.92 18.97-2.30C18.97-2.85 18.81-3.28 18.49-3.59C18.17-3.90 17.72-4.10 17.15-4.19L17.15-4.24C17.61-4.36 17.96-4.57 18.18-4.89C18.40-5.21 18.52-5.56 18.52-5.95C18.52-6.30 18.45-6.59 18.32-6.83C18.19-7.08 18.00-7.28 17.77-7.43C17.53-7.58 17.25-7.69 16.91-7.76C16.58-7.84 16.22-7.87 15.82-7.87ZM15.64-4.51L14.47-4.51L14.47-7.08L15.68-7.08C16.30-7.08 16.76-6.99 17.07-6.80C17.38-6.61 17.53-6.30 17.53-5.87C17.53-5.43 17.39-5.09 17.09-4.86C16.80-4.63 16.32-4.51 15.64-4.51ZM15.84-0.79L14.47-0.79L14.47-3.77L15.84-3.77C16.54-3.77 17.07-3.65 17.44-3.43C17.80-3.20 17.99-2.84 17.99-2.35C17.99-1.82 17.80-1.42 17.42-1.17C17.05-0.92 16.52-0.79 15.84-0.79ZM23.44 0.14C23.93 0.14 24.39 0.05 24.80-0.14C25.21-0.34 25.57-0.61 25.87-0.97C26.17-1.32 26.40-1.75 26.56-2.26C26.73-2.77 26.81-3.34 26.81-3.97C26.81-4.60 26.73-5.16 26.56-5.66C26.40-6.16 26.17-6.58 25.87-6.93C25.57-7.28 25.21-7.55 24.80-7.73C24.39-7.92 23.93-8.02 23.44-8.02C22.94-8.02 22.49-7.92 22.07-7.74C21.66-7.56 21.31-7.29 21.01-6.94C20.72-6.59 20.49-6.17 20.32-5.67C20.16-5.17 20.08-4.60 20.08-3.97C20.08-3.34 20.16-2.77 20.32-2.26C20.49-1.75 20.72-1.32 21.01-0.97C21.31-0.61 21.66-0.34 22.07-0.14C22.49 0.05 22.94 0.14 23.44 0.14ZM23.44-0.73C23.08-0.73 22.77-0.81 22.48-0.96C22.20-1.11 21.95-1.33 21.75-1.61C21.55-1.90 21.39-2.24 21.28-2.63C21.16-3.03 21.11-3.48 21.11-3.97C21.11-4.46 21.16-4.90 21.28-5.29C21.39-5.68 21.55-6.02 21.75-6.29C21.95-6.56 22.20-6.77 22.48-6.92C22.77-7.07 23.08-7.14 23.44-7.14C23.79-7.14 24.11-7.07 24.39-6.92C24.67-6.77 24.92-6.56 25.12-6.29C25.33-6.02 25.48-5.68 25.60-5.29C25.71-4.90 25.76-4.46 25.76-3.97C25.76-3.48 25.71-3.03 25.60-2.63C25.48-2.24 25.33-1.90 25.12-1.61C24.92-1.33 24.67-1.11 24.39-0.96C24.11-0.81 23.79-0.73 23.44-0.73ZM29.50-4.14L29.50-7.07L30.82-7.07C31.43-7.07 31.90-6.96 32.23-6.76C32.56-6.55 32.72-6.18 32.72-5.66C32.72-5.15 32.56-4.77 32.23-4.52C31.90-4.27 31.43-4.14 30.82-4.14ZM32.82 0L33.95 0L31.96-3.43C32.49-3.57 32.92-3.82 33.24-4.19C33.56-4.56 33.72-5.05 33.72-5.66C33.72-6.07 33.65-6.42 33.52-6.70C33.38-6.98 33.19-7.20 32.95-7.38C32.70-7.56 32.41-7.68 32.07-7.76C31.73-7.83 31.36-7.87 30.96-7.87L28.50-7.87L28.50 0L29.50 0L29.50-3.32L30.92-3.32ZM38.70-3.20L36.34-3.20L36.71-4.40C36.85-4.84 36.99-5.28 37.12-5.72C37.24-6.15 37.37-6.60 37.49-7.06L37.54-7.06C37.66-6.60 37.79-6.15 37.92-5.72C38.05-5.28 38.18-4.84 38.33-4.40ZM38.95-2.40L39.70 0L40.76 0L38.10-7.87L36.97-7.87L34.31 0L35.33 0L36.08-2.40ZM43.03-7.03L43.03 0L44.04 0L44.04-7.03L46.42-7.03L46.42-7.87L40.66-7.87L40.66-7.03ZM50.45 0.14C50.94 0.14 51.40 0.05 51.81-0.14C52.22-0.34 52.58-0.61 52.88-0.97C53.18-1.32 53.41-1.75 53.57-2.26C53.74-2.77 53.82-3.34 53.82-3.97C53.82-4.60 53.74-5.16 53.57-5.66C53.41-6.16 53.18-6.58 52.88-6.93C52.58-7.28 52.22-7.55 51.81-7.73C51.40-7.92 50.94-8.02 50.45-8.02C49.95-8.02 49.50-7.92 49.09-7.74C48.67-7.56 48.32-7.29 48.02-6.94C47.73-6.59 47.50-6.17 47.33-5.67C47.17-5.17 47.09-4.60 47.09-3.97C47.09-3.34 47.17-2.77 47.33-2.26C47.50-1.75 47.73-1.32 48.02-0.97C48.32-0.61 48.67-0.34 49.09-0.14C49.50 0.05 49.95 0.14 50.45 0.14ZM50.45-0.73C50.10-0.73 49.78-0.81 49.49-0.96C49.21-1.11 48.97-1.33 48.76-1.61C48.56-1.90 48.40-2.24 48.29-2.63C48.18-3.03 48.12-3.48 48.12-3.97C48.12-4.46 48.18-4.90 48.29-5.29C48.40-5.68 48.56-6.02 48.76-6.29C48.97-6.56 49.21-6.77 49.49-6.92C49.78-7.07 50.10-7.14 50.45-7.14C50.80-7.14 51.12-7.07 51.40-6.92C51.69-6.77 51.93-6.56 52.13-6.29C52.34-6.02 52.50-5.68 52.61-5.29C52.72-4.90 52.78-4.46 52.78-3.97C52.78-3.48 52.72-3.03 52.61-2.63C52.50-2.24 52.34-1.90 52.13-1.61C51.93-1.33 51.69-1.11 51.40-0.96C51.12-0.81 50.80-0.73 50.45-0.73ZM56.51-4.14L56.51-7.07L57.83-7.07C58.44-7.07 58.92-6.96 59.24-6.76C59.57-6.55 59.74-6.18 59.74-5.66C59.74-5.15 59.57-4.77 59.24-4.52C58.92-4.27 58.44-4.14 57.83-4.14ZM59.83 0L60.96 0L58.97-3.43C59.50-3.57 59.93-3.82 60.25-4.19C60.57-4.56 60.73-5.05 60.73-5.66C60.73-6.07 60.66-6.42 60.53-6.70C60.39-6.98 60.20-7.20 59.96-7.38C59.71-7.56 59.42-7.68 59.08-7.76C58.74-7.83 58.37-7.87 57.97-7.87L55.51-7.87L55.51 0L56.51 0L56.51-3.32L57.94-3.32ZM63.59-3.05L63.59 0L64.60 0L64.60-3.05L66.96-7.87L65.92-7.87L64.91-5.65C64.79-5.36 64.66-5.08 64.52-4.80C64.39-4.52 64.25-4.23 64.12-3.94L64.07-3.94C63.93-4.23 63.80-4.52 63.68-4.80C63.56-5.08 63.44-5.36 63.31-5.65L62.29-7.87L61.22-7.87ZM73.36 0.14C73.85 0.14 74.31 0.05 74.72-0.14C75.13-0.34 75.49-0.61 75.79-0.97C76.09-1.32 76.32-1.75 76.48-2.26C76.65-2.77 76.73-3.34 76.73-3.97C76.73-4.60 76.65-5.16 76.48-5.66C76.32-6.16 76.09-6.58 75.79-6.93C75.49-7.28 75.13-7.55 74.72-7.73C74.31-7.92 73.85-8.02 73.36-8.02C72.86-8.02 72.41-7.92 71.99-7.74C71.58-7.56 71.23-7.29 70.93-6.94C70.64-6.59 70.41-6.17 70.24-5.67C70.08-5.17 70.00-4.60 70.00-3.97C70.00-3.34 70.08-2.77 70.24-2.26C70.41-1.75 70.64-1.32 70.93-0.97C71.23-0.61 71.58-0.34 71.99-0.14C72.41 0.05 72.86 0.14 73.36 0.14ZM73.36-0.73C73.00-0.73 72.69-0.81 72.40-0.96C72.12-1.11 71.87-1.33 71.67-1.61C71.47-1.90 71.31-2.24 71.20-2.63C71.08-3.03 71.03-3.48 71.03-3.97C71.03-4.46 71.08-4.90 71.20-5.29C71.31-5.68 71.47-6.02 71.67-6.29C71.87-6.56 72.12-6.77 72.40-6.92C72.69-7.07 73.00-7.14 73.36-7.14C73.71-7.14 74.03-7.07 74.31-6.92C74.59-6.77 74.84-6.56 75.04-6.29C75.25-6.02 75.40-5.68 75.52-5.29C75.63-4.90 75.68-4.46 75.68-3.97C75.68-3.48 75.63-3.03 75.52-2.63C75.40-2.24 75.25-1.90 75.04-1.61C74.84-1.33 74.59-1.11 74.31-0.96C74.03-0.81 73.71-0.73 73.36-0.73ZM78.42-7.87L78.42 0L79.42 0L79.42-3.53L82.42-3.53L82.42-4.37L79.42-4.37L79.42-7.03L82.96-7.03L82.96-7.87ZM86.77-7.87L86.77 0L87.77 0L87.77-7.87ZM89.93-7.87L89.93 0L91.94 0C92.54 0 93.06-0.09 93.52-0.27C93.97-0.45 94.36-0.71 94.67-1.05C94.98-1.39 95.22-1.81 95.38-2.30C95.54-2.79 95.62-3.35 95.62-3.97C95.62-5.23 95.30-6.19 94.67-6.86C94.04-7.54 93.11-7.87 91.90-7.87ZM91.82-0.82L90.92-0.82L90.92-7.06L91.82-7.06C92.74-7.06 93.43-6.79 93.89-6.26C94.35-5.74 94.58-4.97 94.58-3.97C94.58-2.97 94.35-2.20 93.89-1.64C93.43-1.09 92.74-0.82 91.82-0.82ZM97.31-7.87L97.31 0L101.96 0L101.96-0.85L98.30-0.85L98.30-3.71L101.29-3.71L101.29-4.56L98.30-4.56L98.30-7.03L101.84-7.03L101.84-7.87ZM106.98-3.20L104.62-3.20L104.99-4.40C105.13-4.84 105.27-5.28 105.40-5.72C105.52-6.15 105.65-6.60 105.77-7.06L105.82-7.06C105.94-6.60 106.07-6.15 106.20-5.72C106.33-5.28 106.46-4.84 106.61-4.40ZM107.23-2.40L107.98 0L109.04 0L106.38-7.87L105.25-7.87L102.59 0L103.61 0L104.36-2.40ZM110.18-1.72L109.58-1.02C109.93-0.66 110.34-0.38 110.81-0.17C111.28 0.04 111.79 0.14 112.34 0.14C112.76 0.14 113.13 0.09 113.46-0.03C113.79-0.15 114.07-0.31 114.30-0.51C114.53-0.71 114.71-0.95 114.83-1.22C114.96-1.50 115.02-1.79 115.02-2.10C115.02-2.39 114.98-2.64 114.89-2.86C114.81-3.08 114.70-3.27 114.55-3.44C114.41-3.60 114.24-3.75 114.04-3.87C113.84-3.99 113.62-4.10 113.40-4.20L112.28-4.68C112.12-4.74 111.97-4.81 111.82-4.89C111.66-4.97 111.52-5.05 111.40-5.15C111.27-5.25 111.17-5.37 111.09-5.50C111.01-5.63 110.98-5.80 110.98-5.99C110.98-6.35 111.11-6.63 111.38-6.83C111.65-7.04 112.00-7.14 112.44-7.14C112.81-7.14 113.14-7.07 113.43-6.94C113.72-6.81 113.99-6.63 114.23-6.40L114.77-7.04C114.49-7.33 114.15-7.57 113.75-7.75C113.35-7.93 112.91-8.02 112.44-8.02C112.08-8.02 111.75-7.96 111.45-7.86C111.15-7.76 110.89-7.61 110.67-7.42C110.45-7.23 110.28-7.01 110.15-6.76C110.03-6.50 109.97-6.22 109.97-5.93C109.97-5.64 110.02-5.39 110.11-5.17C110.21-4.95 110.33-4.76 110.48-4.60C110.64-4.44 110.81-4.30 111.00-4.19C111.19-4.08 111.38-3.98 111.56-3.90L112.69-3.41C112.88-3.32 113.05-3.24 113.21-3.16C113.37-3.08 113.51-2.99 113.62-2.89C113.74-2.79 113.83-2.67 113.90-2.53C113.97-2.39 114.00-2.22 114.00-2.02C114.00-1.63 113.86-1.32 113.57-1.09C113.28-0.85 112.88-0.73 112.36-0.73C111.95-0.73 111.55-0.82 111.17-1.00C110.79-1.18 110.46-1.42 110.18-1.72Z"
            transform="translate(-1.08, 8.016)"></path>
        </g>
      </g>
    </g>
  </g>
</svg>
